<svg width="83" height="71" viewBox="0 0 83 71" fill="none" xmlns="http://www.w3.org/2000/svg">
<path d="M2.90625 60V14.9091H35.4034V24.7727H15.1477V32.5227H33.7301V42.3864H15.1477V50.1364H35.3153V60H2.90625Z" fill="#3931E1"/>
<path d="M83.0028 31.8182H70.5852C70.4972 30.7907 70.2623 29.8587 69.8807 29.022C69.5137 28.1854 69 27.4661 68.3395 26.8643C67.6937 26.2479 66.9084 25.7782 65.9837 25.4553C65.0589 25.1177 64.0095 24.9489 62.8352 24.9489C60.7803 24.9489 59.041 25.4479 57.6172 26.446C56.2081 27.4441 55.1366 28.8752 54.4027 30.7393C53.6835 32.6035 53.3239 34.8419 53.3239 37.4545C53.3239 40.214 53.6908 42.5258 54.4247 44.3899C55.1733 46.2393 56.2521 47.6338 57.6612 48.5732C59.0703 49.4979 60.7656 49.9602 62.7472 49.9602C63.8774 49.9602 64.8902 49.8208 65.7855 49.5419C66.6809 49.2483 67.4588 48.83 68.1193 48.2869C68.7798 47.7438 69.3156 47.0907 69.7266 46.3274C70.1522 45.5495 70.4384 44.6761 70.5852 43.7074L83.0028 43.7955C82.8561 45.7036 82.3203 47.6484 81.3956 49.63C80.4709 51.5968 79.1572 53.4169 77.4545 55.0902C75.7666 56.7488 73.675 58.0845 71.1797 59.0973C68.6844 60.1101 65.7855 60.6165 62.483 60.6165C58.3438 60.6165 54.6302 59.7285 51.3423 57.9524C48.0691 56.1764 45.4785 53.5637 43.5703 50.1143C41.6768 46.665 40.7301 42.4451 40.7301 37.4545C40.7301 32.4347 41.6989 28.2074 43.6364 24.7727C45.5739 21.3234 48.1866 18.718 51.4744 16.9567C54.7623 15.1806 58.4318 14.2926 62.483 14.2926C65.3305 14.2926 67.9505 14.6816 70.343 15.4595C72.7356 16.2375 74.8345 17.375 76.6399 18.8722C78.4453 20.3546 79.8984 22.1821 80.9993 24.3544C82.1001 26.5268 82.768 29.0147 83.0028 31.8182Z" fill="white"/>
</svg>
